PathFileType	3	(X/Y/Z)	D:\minhoCalibration\240510\subject2_KPNP\preferred\preferred09.trc
DataRate	CameraRate	NumFrames	NumMarkers	Units	OrigDataRate	OrigDataStartFrame	OrigNumFrames
200.0	200.0	24	10	mm	200.0	336	221	
Frame#	Time	Left_Ankle_Outer1			Left_Ankle_Inner1			Left_Knee_Outer1			Left_Knee_Inner1			Left_Wrist1			Right_Wrist1			Right_Knee_Inner1			Right_Knee_Outer1			Right_Ankle_Inner1			Right_Ankle_Outer1			
		X1	Y1	Z1	X2	Y2	Z2	X3	Y3	Z3	X4	Y4	Z4	X5	Y5	Z5	X6	Y6	Z6	X7	Y7	Z7	X8	Y8	Z8	X9	Y9	Z9	X10	Y10	Z10	
336	1.67	-632.16675	89.134674	-727.58984	-650.64423	100.9535	-671.80389	-425.22733	495.66946	-748.78058	-466.01788	486.74686	-658.28876	-450.85025	963.38544	-857.28833	-642.00269	1108.9597	-600.83008	-707.81683	782.74725	-219.52673	-758.92651	875.375	-225.07874	-877.03485	704.47003	-596.14703	-943.02045	778.77002	-583.31873
337	1.675	-633.19336	90.005798	-725.69531	-649.79504	101.16682	-671.65588	-422.97528	495.37579	-751.54205	-461.45743	485.97162	-659.12177	-457.01566	961.2392	-861.12006	-634.30481	1112.9031	-597.76666	-686.65045	798.06097	-207.01703	-734.84198	893.17316	-210.05803	-881.36481	717.6106	-572.86078	-943.70868	795.37445	-555.79053
338	1.68	-633.9342	91.072716	-723.63452	-649.18384	102.50531	-669.23633	-421.10791	494.63834	-754.06445	-456.86423	485.37558	-660.32959	-463.41006	959.17755	-864.99768	-626.83862	1116.7675	-595.27765	-664.74084	813.33954	-195.92554	-709.18573	910.37366	-198.35526	-884.7981	730.6767	-546.75201	-943.24249	811.02136	-527.2973
339	1.685	-634.35693	92.046875	-721.42975	-648.26086	103.84039	-666.63226	-419.97614	493.77109	-755.96161	-451.95932	484.92215	-661.74353	-470.63861	956.61627	-868.02081	-618.28821	1120.5182	-592.49902	-642.4223	828.53625	-186.31375	-682.74091	926.11182	-189.99678	-889.59845	743.66168	-518.87708	-942.98834	827.28546	-497.39868
340	1.69	-634.39069	93.117989	-719.20551	-647.06976	105.84305	-663.09473	-418.4921	493.95471	-758.04688	-446.99731	484.63531	-663.24634	-478.19373	954.1178	-870.54999	-611.51868	1124.1288	-590.93909	-619.76691	843.34882	-178.05884	-656.32343	942.67084	-181.14719	-892.79987	757.05182	-489.41974	-942.31628	842.7486	-466.40756
341	1.695	-634.10321	94.082474	-717.16504	-645.73627	106.14059	-661.80444	-418.3219	493.76016	-759.54517	-442.06137	484.58978	-664.9071	-485.54929	951.92633	-873.06897	-604.2594	1127.4059	-589.0899	-596.81384	857.94165	-171.63782	-629.72955	958.2724	-175.15628	-895.56714	770.37067	-458.37149	-940.74115	858.29242	-434.14093
342	1.7	-633.74554	94.995384	-715.45184	-644.64087	107.99626	-658.22021	-417.79114	494.60144	-761.12952	-437.64435	484.81427	-666.56732	-493.97803	948.95557	-874.0271	-597.31384	1130.7899	-588.46576	-573.64819	872.19476	-167.11429	-602.76129	972.53302	-172.29085	-897.79944	783.32202	-425.02448	-938.08209	873.75238	-400.50305
343	1.705	-633.33594	95.714943	-714.02826	-643.08496	108.37913	-657.93719	-418.20004	495.24359	-762.17346	-433.93597	485.28271	-668.07605	-501.52277	946.84418	-875.57715	-591.09113	1133.4022	-588.04163	-550.83075	885.82013	-163.91542	-576.85071	986.43964	-169.62671	-898.02838	798.21136	-388.79077	-934.11566	889.09393	-365.21329
344	1.71	-632.89734	96.027969	-712.60199	-642.07147	108.86078	-657.23065	-418.86752	496.10199	-762.78668	-431.30005	485.84558	-669.04321	-509.55045	944.18756	-876.30847	-585.02948	1135.947	-587.73596	-528.33191	898.69312	-162.14262	-551.36041	998.90411	-169.68533	-896.27979	811.46692	-353.63837	-928.15027	903.92084	-331.56534
345	1.715	-632.78418	96.906059	-712.45569	-641.3985	108.1643	-658.43823	-419.70544	497.07571	-763.30359	-429.9332	486.4924	-669.29321	-517.81952	941.36481	-876.19745	-579.06201	1138.307	-587.50983	-506.57672	910.76477	-161.66206	-526.93237	1010.1174	-171.41579	-894.22998	825.5675	-312.4447	-920.92511	919.58899	-291.99854
346	1.72	-632.77429	97.295967	-712.23962	-641.52722	110.07048	-655.81006	-421.06027	497.94519	-763.0719	-429.66422	487.12671	-668.87427	-525.77844	938.71576	-875.36346	-574.3139	1140.2972	-587.96893	-485.55878	921.91956	-162.5573	-503.79532	1020.0435	-174.70799	-888.93146	840.06104	-270.42899	-911.19299	935.31561	-252.2406
347	1.725	-632.78827	97.489059	-712.31616	-641.38617	109.43797	-656.99817	-422.50513	498.81573	-762.61188	-430.30457	487.7092	-667.98877	-533.08167	936.3736	-874.56726	-569.67572	1142.2646	-588.37744	-465.62338	931.89252	-164.62462	-482.09625	1028.3788	-179.5031	-880.5614	855.15991	-226.41385	-898.80499	951.42438	-211.17804
348	1.73	-632.82605	97.466095	-712.45703	-641.95776	110.36938	-655.26031	-423.87424	499.59637	-761.91864	-431.45599	488.39474	-666.64453	-539.76379	934.36591	-873.12848	-565.62952	1144.1022	-588.95929	-447.36551	940.71423	-167.45479	-462.57925	1035.8823	-184.83594	-868.65967	870.65289	-181.3186	-883.42993	967.54816	-169.03709
349	1.735	-632.95947	97.283684	-712.57104	-641.47644	108.2056	-658.62256	-425.15219	500.36697	-761.01379	-433.53745	488.89246	-664.9715	-546.19769	932.18225	-871.17889	-562.14691	1145.6683	-589.85785	-430.68646	948.36603	-171.50665	-445.11688	1041.8647	-190.91148	-852.50671	886.55103	-135.83734	-864.73767	983.89856	-126.32134
350	1.74	-633.15881	97.035866	-712.60748	-641.91766	109.02569	-656.966	-427.12589	500.98306	-759.09784	-436.36377	489.22211	-663.04834	-551.69391	930.42029	-869.10394	-559.17932	1147.1232	-590.89331	-416.0679	954.68213	-176.30467	-430.0387	1046.7057	-197.20135	-832.45947	902.67108	-90.504242	-842.46844	1000.2614	-83.293671
351	1.745	-633.37122	96.770081	-712.40845	-642.26373	108.60699	-656.73718	-428.63666	501.65576	-757.48297	-439.38614	489.69064	-660.93549	-556.36194	929.03949	-867.05322	-556.74695	1148.9373	-591.39453	-403.59854	959.72345	-181.27112	-417.29712	1050.5439	-203.15775	-808.6723	918.6947	-45.072945	-816.21191	1017.0007	-40.807602
352	1.75	-633.86731	96.562546	-711.99615	-642.49823	107.47371	-657.39636	-430.09009	502.3576	-755.66107	-442.6384	490.11575	-658.69061	-560.40045	927.83447	-864.98578	-554.88068	1150.6265	-591.73187	-393.89114	963.80182	-186.07138	-407.09555	1053.4149	-208.60793	-780.67596	934.54724	0.17803639	-786.24377	1033.3882	1.9227575
353	1.755	-634.52216	96.430298	-711.1156	-643.55225	108.52229	-654.11713	-431.1933	503.14194	-753.96216	-446.02121	490.57327	-656.50287	-564.00275	926.68073	-862.84961	-553.35699	1152.0955	-592.16864	-386.74942	966.92926	-190.50185	-399.80469	1055.348	-213.21391	-748.57434	950.65686	43.655781	-751.87024	1049.9539	42.74234
354	1.76	-635.35474	96.429047	-709.97345	-643.59576	106.5032	-655.73022	-432.78937	503.4144	-751.85968	-449.42398	491.05753	-654.32715	-566.9024	926.17896	-860.41846	-552.17578	1153.5276	-592.44989	-382.3783	969.22223	-194.54195	-394.05902	1056.7908	-217.14336	-712.48572	966.5238	84.040581	-713.09686	1066.1285	81.265205
355	1.765	-636.099	96.208862	-708.16779	-644.08704	106.82951	-653.49902	-433.70251	504.45956	-750.0036	-452.63861	491.60074	-652.3678	-569.09125	925.83911	-858.90094	-551.3493	1155.0621	-592.58954	-380.80408	971.04962	-197.84067	-391.00037	1057.2803	-219.97169	-672.61792	982.27435	121.71407	-670.32678	1082.1373	116.99382
356	1.77	-637.16925	96.69429	-706.91016	-645.26074	108.20215	-649.16168	-434.85532	505.23996	-748.56158	-455.59415	492.21414	-650.64142	-570.94617	925.73657	-857.00482	-550.82867	1156.703	-592.57581	-382.1709	972.46948	-200.54184	-390.50049	1057.4265	-221.61397	-629.25488	996.68201	155.02708	-623.09741	1096.5751	147.90576
357	1.775	-638.08063	97.022003	-705.2663	-645.85236	108.27845	-647.31177	-436.40945	506.0246	-747.15265	-458.14145	492.81955	-649.13031	-572.3692	926.01764	-854.67279	-550.60553	1158.5699	-592.27826	-386.23538	973.78015	-202.48457	-391.89169	1057.3927	-222.37923	-581.0257	1008.035	182.76875	-573.18982	1108.889	173.3941
358	1.78	-638.96826	97.362503	-703.80164	-645.36707	106.69437	-648.95789	-438.67505	506.53708	-745.66937	-460.26776	493.49023	-647.90216	-573.24634	926.50507	-852.72412	-550.66992	1160.5312	-591.62164	-391.99188	975.11572	-202.84042	-395.30405	1058.323	-221.63666	-528.96985	1019.8229	204.26271	-520.98688	1119.3409	191.5296
359	1.785	-639.69391	97.770859	-702.45557	-645.98041	108.29747	-645.26233	-440.73395	507.68399	-744.64429	-461.93573	494.17676	-646.90601	-573.78278	926.90417	-850.62427	-550.86902	1162.623	-590.21558	-399.05627	977.05566	-200.98459	-400.66882	1060.4611	-220.75424	-473.45813	1026.6509	217.11777	-468.91583	1125.882	202.81851
